<?xml version="1.0" encoding="utf-8"?>
<svg viewBox="0 0 40 40" xmlns="http://www.w3.org/2000/svg" xmlns:bx="https://boxy-svg.com">
  <defs>
    <linearGradient x1="19.127525%" y1="20.5791813%" x2="90.7415328%" y2="88.4290372%" id="linearGradient-2">
      <stop stop-color="#FFE052" offset="0"/>
      <stop stop-color="#FFC331" offset="1"/>
    </linearGradient>
    <linearGradient x1="12.9593594%" y1="12.0393928%" x2="79.6388325%" y2="78.2008538%" id="linearGradient-1">
      <stop stop-color="#387EB8" offset="0"/>
      <stop stop-color="#366994" offset="1"/>
    </linearGradient>
  </defs>
  <path d="M 20.112 35 C 27.726 35 27.25 31.688 27.25 31.688 L 27.242 28.258 L 19.976 28.258 L 19.976 27.227 L 30.128 27.227 C 30.128 27.227 35 27.781 35 20.076 C 35 12.371 30.748 12.644 30.748 12.644 L 28.209 12.644 L 28.209 16.219 C 28.209 16.219 28.346 20.485 24.025 20.485 L 16.818 20.485 C 16.818 20.485 12.769 20.419 12.769 24.409 L 12.769 31.007 C 12.769 31.007 12.154 35 20.112 35 Z M 24.118 32.692 C 23.395 32.692 22.811 32.107 22.811 31.382 C 22.811 30.657 23.395 30.071 24.118 30.071 C 24.841 30.071 25.425 30.657 25.425 31.382 C 25.425 32.107 24.841 32.692 24.118 32.692 Z" fill="url(#linearGradient-2)"/>
  <rect x="8.907" y="26.557" width="5.844" height="10.164" style="fill: rgb(216, 216, 216); stroke: rgb(0, 0, 0);"/>
  <path d="M -14.683 26.363 H -4.336 L -4.336 24.22 L 0.317 29.22 L -4.336 34.22 L -4.336 32.078 H -14.683 V 26.363 Z" style="fill: rgb(216, 216, 216); stroke: rgb(0, 0, 0);" transform="matrix(-0.000798, -1, 1, -0.000798, -17.62182, 1.934994)" bx:shape="arrow -14.683 24.22 15 10 5.715 4.653 0 1@77e5c7ea"/>
  <ellipse style="fill: rgb(216, 216, 216); stroke: rgb(0, 0, 0);" cx="11.584" cy="15.464" rx="3.967" ry="3.672"/>
  <path d="M -14.683 26.363 H -4.336 L -4.336 24.22 L 0.317 29.22 L -4.336 34.22 L -4.336 32.078 H -14.683 V 26.363 Z" style="fill: rgb(216, 216, 216); stroke: rgb(0, 0, 0);" transform="matrix(-0.000798, -1, 1, -0.000798, -0.12096, 12.944715)" bx:shape="arrow -14.683 24.22 15 10 5.715 4.653 0 1@77e5c7ea"/>
  <ellipse style="fill: rgb(216, 216, 216); stroke: rgb(0, 0, 0);" cx="11.784" cy="25.847" rx="3.967" ry="3.672"/>
  <path d="M 19.888 5 C 12.274 5 12.75 8.312 12.75 8.312 L 12.758 11.742 L 20.024 11.742 L 20.024 12.773 L 9.872 12.773 C 9.872 12.773 5 12.219 5 19.924 C 5 27.629 9.252 27.356 9.252 27.356 L 11.791 27.356 L 11.791 23.781 C 11.791 23.781 11.654 19.515 15.975 19.515 L 23.182 19.515 C 23.182 19.515 27.231 19.581 27.231 15.591 L 27.231 8.993 C 27.231 8.993 27.846 5 19.888 5 Z M 15.882 7.307 C 16.605 7.307 17.189 7.893 17.189 8.618 C 17.189 9.343 16.605 9.929 15.882 9.929 C 15.159 9.929 14.575 9.343 14.575 8.618 C 14.575 7.893 15.159 7.307 15.882 7.307 Z" fill="url(#linearGradient-1)"/>
</svg>